<svg xmlns="http://www.w3.org/2000/svg" xmlns:xlink="http://www.w3.org/1999/xlink" version="1.1" x="0px" y="0px" viewBox="0 0 32 40" enable-background="new 0 0 32 32" xml:space="preserve"><g><g><circle cx="24" cy="8" r="6"/></g><g><path d="M14.5,30C4.6870117,30,2,27.3134766,2,17.5S4.6870117,5,14.5,5c0.6743164,0,1.3056641,0.015625,1.9116211,0.0410156    c0.2758713,0.0117188,0.4902344,0.2451172,0.4785156,0.5214844c-0.0112305,0.2763672-0.2558594,0.4941406-0.5205078,0.4785156    C15.7763672,6.015625,15.159668,6,14.5,6C5.2568359,6,3,8.2568359,3,17.5S5.2568359,29,14.5,29S26,26.7431641,26,17.5    c0-0.6591797-0.015625-1.2763672-0.0410156-1.8691406c-0.0117188-0.2753906,0.2021484-0.5087891,0.4780273-0.5214844    c0.2763672,0.0048828,0.5092773,0.203125,0.5209961,0.4785156C26.984375,16.1943359,27,16.8251953,27,17.5    C27,27.3134766,24.3129883,30,14.5,30z"/></g></g><text x="0" y="47" fill="#000000" font-size="5px" font-weight="bold" font-family="'Helvetica Neue', Helvetica, Arial-Unicode, Arial, Sans-serif">Created by Musket</text><text x="0" y="52" fill="#000000" font-size="5px" font-weight="bold" font-family="'Helvetica Neue', Helvetica, Arial-Unicode, Arial, Sans-serif">from the Noun Project</text></svg>